<?xml version="1.0" encoding="utf-8" standalone="no"?>
<!DOCTYPE svg PUBLIC "-//W3C//DTD SVG 1.1//EN"
  "http://www.w3.org/Graphics/SVG/1.1/DTD/svg11.dtd">
<svg xmlns:xlink="http://www.w3.org/1999/xlink" width="648pt" height="388.8pt" viewBox="0 0 648 388.8" xmlns="http://www.w3.org/2000/svg" version="1.1">
 <metadata>
  <rdf:RDF xmlns:dc="http://purl.org/dc/elements/1.1/" xmlns:cc="http://creativecommons.org/ns#" xmlns:rdf="http://www.w3.org/1999/02/22-rdf-syntax-ns#">
   <cc:Work>
    <dc:type rdf:resource="http://purl.org/dc/dcmitype/StillImage"/>
    <dc:format>image/svg+xml</dc:format>
    <dc:creator>
     <cc:Agent>
      <dc:title>Matplotlib v3.10.1, https://matplotlib.org/</dc:title>
     </cc:Agent>
    </dc:creator>
   </cc:Work>
  </rdf:RDF>
 </metadata>
 <defs>
  <style type="text/css">*{stroke-linejoin: round; stroke-linecap: butt}</style>
 </defs>
 <g id="figure_1">
  <g id="patch_1">
   <path d="M 0 388.8 
L 648 388.8 
L 648 0 
L 0 0 
z
" style="fill: #ffffff"/>
  </g>
  <g id="axes_1">
   <g id="patch_2">
    <path d="M 61.4 344.32 
L 636.12 344.32 
L 636.12 11.88 
L 61.4 11.88 
z
" style="fill: #ececf3"/>
   </g>
   <g id="FillBetweenPolyCollection_1">
    <defs>
     <path id="mac126417d0" d="M 61.4 -354.757333 
L 61.4 -44.48 
L 66.764053 -44.48 
L 72.128107 -44.48 
L 77.49216 -44.48 
L 82.856213 -44.48 
L 88.220267 -44.48 
L 93.58432 -44.48 
L 98.948373 -44.48 
L 104.312427 -44.48 
L 109.67648 -44.48 
L 115.040533 -44.48 
L 120.404587 -44.48 
L 125.76864 -44.48 
L 131.132693 -44.48 
L 136.496747 -44.48 
L 141.8608 -44.48 
L 147.224853 -44.48 
L 152.588907 -44.48 
L 157.95296 -44.48 
L 163.317013 -44.48 
L 168.681067 -44.48 
L 174.04512 -44.48 
L 179.409173 -44.48 
L 184.773227 -44.48 
L 190.13728 -44.48 
L 195.501333 -44.48 
L 200.865387 -44.48 
L 206.22944 -44.48 
L 211.593493 -44.48 
L 216.957547 -44.48 
L 222.3216 -44.48 
L 227.685653 -44.48 
L 233.049707 -44.48 
L 238.41376 -44.48 
L 243.777813 -44.48 
L 249.141867 -44.48 
L 254.50592 -44.48 
L 259.869973 -44.48 
L 265.234027 -44.48 
L 270.59808 -44.48 
L 275.962133 -44.48 
L 281.326187 -44.48 
L 286.69024 -44.48 
L 292.054293 -44.48 
L 297.418347 -44.48 
L 302.7824 -44.48 
L 308.146453 -44.48 
L 313.510507 -44.48 
L 318.87456 -44.48 
L 324.238613 -44.48 
L 329.602667 -44.48 
L 334.96672 -44.48 
L 340.330773 -44.48 
L 345.694827 -44.48 
L 351.05888 -44.48 
L 356.422933 -44.48 
L 361.786987 -44.48 
L 367.15104 -44.48 
L 372.515093 -44.48 
L 377.879147 -44.48 
L 383.2432 -44.48 
L 388.607253 -44.48 
L 393.971307 -44.48 
L 399.33536 -44.48 
L 404.699413 -44.48 
L 410.063467 -44.48 
L 415.42752 -44.48 
L 420.791573 -44.48 
L 426.155627 -44.48 
L 431.51968 -44.48 
L 436.883733 -44.48 
L 442.247787 -44.48 
L 447.61184 -44.48 
L 452.975893 -44.48 
L 458.339947 -44.48 
L 463.704 -44.48 
L 469.068053 -44.48 
L 474.432107 -44.48 
L 479.79616 -44.48 
L 485.160213 -44.48 
L 490.524267 -44.48 
L 495.88832 -44.48 
L 501.252373 -44.48 
L 506.616427 -44.48 
L 511.98048 -44.48 
L 517.344533 -44.48 
L 522.708587 -44.48 
L 528.07264 -44.48 
L 533.436693 -44.48 
L 538.800747 -44.48 
L 544.1648 -44.48 
L 549.528853 -44.48 
L 554.892907 -44.48 
L 560.25696 -44.48 
L 565.621013 -44.48 
L 570.985067 -44.48 
L 576.34912 -44.48 
L 581.713173 -44.48 
L 587.077227 -44.48 
L 592.44128 -44.48 
L 597.805333 -44.48 
L 597.805333 -44.48 
L 597.805333 -44.48 
L 592.44128 -47.582773 
L 587.077227 -50.685547 
L 581.713173 -53.78832 
L 576.34912 -56.891093 
L 570.985067 -59.993867 
L 565.621013 -63.09664 
L 560.25696 -66.199413 
L 554.892907 -69.302187 
L 549.528853 -72.40496 
L 544.1648 -75.507733 
L 538.800747 -78.610507 
L 533.436693 -81.71328 
L 528.07264 -84.816053 
L 522.708587 -87.918827 
L 517.344533 -91.0216 
L 511.98048 -94.124373 
L 506.616427 -97.227147 
L 501.252373 -100.32992 
L 495.88832 -103.432693 
L 490.524267 -106.535467 
L 485.160213 -109.63824 
L 479.79616 -112.741013 
L 474.432107 -115.843787 
L 469.068053 -118.94656 
L 463.704 -122.049333 
L 458.339947 -125.152107 
L 452.975893 -128.25488 
L 447.61184 -131.357653 
L 442.247787 -134.460427 
L 436.883733 -137.5632 
L 431.51968 -140.665973 
L 426.155627 -143.768747 
L 420.791573 -146.87152 
L 415.42752 -149.974293 
L 410.063467 -153.077067 
L 404.699413 -156.17984 
L 399.33536 -159.282613 
L 393.971307 -162.385387 
L 388.607253 -165.48816 
L 383.2432 -168.590933 
L 377.879147 -171.693707 
L 372.515093 -174.79648 
L 367.15104 -177.899253 
L 361.786987 -181.002027 
L 356.422933 -184.1048 
L 351.05888 -187.207573 
L 345.694827 -190.310347 
L 340.330773 -193.41312 
L 334.96672 -196.515893 
L 329.602667 -199.618667 
L 324.238613 -202.72144 
L 318.87456 -205.824213 
L 313.510507 -208.926987 
L 308.146453 -212.02976 
L 302.7824 -215.132533 
L 297.418347 -218.235307 
L 292.054293 -221.33808 
L 286.69024 -224.440853 
L 281.326187 -227.543627 
L 275.962133 -230.6464 
L 270.59808 -233.749173 
L 265.234027 -236.851947 
L 259.869973 -239.95472 
L 254.50592 -243.057493 
L 249.141867 -246.160267 
L 243.777813 -249.26304 
L 238.41376 -252.365813 
L 233.049707 -255.468587 
L 227.685653 -258.57136 
L 222.3216 -261.674133 
L 216.957547 -264.776907 
L 211.593493 -267.87968 
L 206.22944 -270.982453 
L 200.865387 -274.085227 
L 195.501333 -277.188 
L 190.13728 -280.290773 
L 184.773227 -283.393547 
L 179.409173 -286.49632 
L 174.04512 -289.599093 
L 168.681067 -292.701867 
L 163.317013 -295.80464 
L 157.95296 -298.907413 
L 152.588907 -302.010187 
L 147.224853 -305.11296 
L 141.8608 -308.215733 
L 136.496747 -311.318507 
L 131.132693 -314.42128 
L 125.76864 -317.524053 
L 120.404587 -320.626827 
L 115.040533 -323.7296 
L 109.67648 -326.832373 
L 104.312427 -329.935147 
L 98.948373 -333.03792 
L 93.58432 -336.140693 
L 88.220267 -339.243467 
L 82.856213 -342.34624 
L 77.49216 -345.449013 
L 72.128107 -348.551787 
L 66.764053 -351.65456 
L 61.4 -354.757333 
z
" style="stroke: #268a87; stroke-opacity: 0.12"/>
    </defs>
    <g clip-path="url(#p1844aa6069)">
     <use xlink:href="#mac126417d0" x="0" y="388.8" style="fill: #268a87; fill-opacity: 0.12; stroke: #268a87; stroke-opacity: 0.12"/>
    </g>
   </g>
   <g id="matplotlib.axis_1">
    <g id="xtick_1">
     <g id="line2d_1">
      <path d="M 61.4 344.32 
L 61.4 11.88 
" clip-path="url(#p1844aa6069)" style="fill: none; stroke: #ffffff; stroke-width: 0.8; stroke-linecap: square"/>
     </g>
     <g id="line2d_2">
      <defs>
       <path id="m3df75089f0" d="M 0 0 
L 0 3.5 
" style="stroke: #636870; stroke-width: 0.8"/>
      </defs>
      <g>
       <use xlink:href="#m3df75089f0" x="61.4" y="344.32" style="fill: #636870; stroke: #636870; stroke-width: 0.8"/>
      </g>
     </g>
     <g id="text_1">
      <!-- 0 -->
      <g style="fill: #636870" transform="translate(57.900625 359.678281) scale(0.11 -0.11)">
       <defs>
        <path id="DejaVuSans-30" d="M 2034 4250 
Q 1547 4250 1301 3770 
Q 1056 3291 1056 2328 
Q 1056 1369 1301 889 
Q 1547 409 2034 409 
Q 2525 409 2770 889 
Q 3016 1369 3016 2328 
Q 3016 3291 2770 3770 
Q 2525 4250 2034 4250 
z
M 2034 4750 
Q 2819 4750 3233 4129 
Q 3647 3509 3647 2328 
Q 3647 1150 3233 529 
Q 2819 -91 2034 -91 
Q 1250 -91 836 529 
Q 422 1150 422 2328 
Q 422 3509 836 4129 
Q 1250 4750 2034 4750 
z
" transform="scale(0.015625)"/>
       </defs>
       <use xlink:href="#DejaVuSans-30"/>
      </g>
     </g>
    </g>
    <g id="xtick_2">
     <g id="line2d_3">
      <path d="M 138.029333 344.32 
L 138.029333 11.88 
" clip-path="url(#p1844aa6069)" style="fill: none; stroke: #ffffff; stroke-width: 0.8; stroke-linecap: square"/>
     </g>
     <g id="line2d_4">
      <g>
       <use xlink:href="#m3df75089f0" x="138.029333" y="344.32" style="fill: #636870; stroke: #636870; stroke-width: 0.8"/>
      </g>
     </g>
     <g id="text_2">
      <!-- 100 -->
      <g style="fill: #636870" transform="translate(127.531208 359.678281) scale(0.11 -0.11)">
       <defs>
        <path id="DejaVuSans-31" d="M 794 531 
L 1825 531 
L 1825 4091 
L 703 3866 
L 703 4441 
L 1819 4666 
L 2450 4666 
L 2450 531 
L 3481 531 
L 3481 0 
L 794 0 
L 794 531 
z
" transform="scale(0.015625)"/>
       </defs>
       <use xlink:href="#DejaVuSans-31"/>
       <use xlink:href="#DejaVuSans-30" transform="translate(63.623047 0)"/>
       <use xlink:href="#DejaVuSans-30" transform="translate(127.246094 0)"/>
      </g>
     </g>
    </g>
    <g id="xtick_3">
     <g id="line2d_5">
      <path d="M 214.658667 344.32 
L 214.658667 11.88 
" clip-path="url(#p1844aa6069)" style="fill: none; stroke: #ffffff; stroke-width: 0.8; stroke-linecap: square"/>
     </g>
     <g id="line2d_6">
      <g>
       <use xlink:href="#m3df75089f0" x="214.658667" y="344.32" style="fill: #636870; stroke: #636870; stroke-width: 0.8"/>
      </g>
     </g>
     <g id="text_3">
      <!-- 200 -->
      <g style="fill: #636870" transform="translate(204.160542 359.678281) scale(0.11 -0.11)">
       <defs>
        <path id="DejaVuSans-32" d="M 1228 531 
L 3431 531 
L 3431 0 
L 469 0 
L 469 531 
Q 828 903 1448 1529 
Q 2069 2156 2228 2338 
Q 2531 2678 2651 2914 
Q 2772 3150 2772 3378 
Q 2772 3750 2511 3984 
Q 2250 4219 1831 4219 
Q 1534 4219 1204 4116 
Q 875 4013 500 3803 
L 500 4441 
Q 881 4594 1212 4672 
Q 1544 4750 1819 4750 
Q 2544 4750 2975 4387 
Q 3406 4025 3406 3419 
Q 3406 3131 3298 2873 
Q 3191 2616 2906 2266 
Q 2828 2175 2409 1742 
Q 1991 1309 1228 531 
z
" transform="scale(0.015625)"/>
       </defs>
       <use xlink:href="#DejaVuSans-32"/>
       <use xlink:href="#DejaVuSans-30" transform="translate(63.623047 0)"/>
       <use xlink:href="#DejaVuSans-30" transform="translate(127.246094 0)"/>
      </g>
     </g>
    </g>
    <g id="xtick_4">
     <g id="line2d_7">
      <path d="M 291.288 344.32 
L 291.288 11.88 
" clip-path="url(#p1844aa6069)" style="fill: none; stroke: #ffffff; stroke-width: 0.8; stroke-linecap: square"/>
     </g>
     <g id="line2d_8">
      <g>
       <use xlink:href="#m3df75089f0" x="291.288" y="344.32" style="fill: #636870; stroke: #636870; stroke-width: 0.8"/>
      </g>
     </g>
     <g id="text_4">
      <!-- 300 -->
      <g style="fill: #636870" transform="translate(280.789875 359.678281) scale(0.11 -0.11)">
       <defs>
        <path id="DejaVuSans-33" d="M 2597 2516 
Q 3050 2419 3304 2112 
Q 3559 1806 3559 1356 
Q 3559 666 3084 287 
Q 2609 -91 1734 -91 
Q 1441 -91 1130 -33 
Q 819 25 488 141 
L 488 750 
Q 750 597 1062 519 
Q 1375 441 1716 441 
Q 2309 441 2620 675 
Q 2931 909 2931 1356 
Q 2931 1769 2642 2001 
Q 2353 2234 1838 2234 
L 1294 2234 
L 1294 2753 
L 1863 2753 
Q 2328 2753 2575 2939 
Q 2822 3125 2822 3475 
Q 2822 3834 2567 4026 
Q 2313 4219 1838 4219 
Q 1578 4219 1281 4162 
Q 984 4106 628 3988 
L 628 4550 
Q 988 4650 1302 4700 
Q 1616 4750 1894 4750 
Q 2613 4750 3031 4423 
Q 3450 4097 3450 3541 
Q 3450 3153 3228 2886 
Q 3006 2619 2597 2516 
z
" transform="scale(0.015625)"/>
       </defs>
       <use xlink:href="#DejaVuSans-33"/>
       <use xlink:href="#DejaVuSans-30" transform="translate(63.623047 0)"/>
       <use xlink:href="#DejaVuSans-30" transform="translate(127.246094 0)"/>
      </g>
     </g>
    </g>
    <g id="xtick_5">
     <g id="line2d_9">
      <path d="M 367.917333 344.32 
L 367.917333 11.88 
" clip-path="url(#p1844aa6069)" style="fill: none; stroke: #ffffff; stroke-width: 0.8; stroke-linecap: square"/>
     </g>
     <g id="line2d_10">
      <g>
       <use xlink:href="#m3df75089f0" x="367.917333" y="344.32" style="fill: #636870; stroke: #636870; stroke-width: 0.8"/>
      </g>
     </g>
     <g id="text_5">
      <!-- 400 -->
      <g style="fill: #636870" transform="translate(357.419208 359.678281) scale(0.11 -0.11)">
       <defs>
        <path id="DejaVuSans-34" d="M 2419 4116 
L 825 1625 
L 2419 1625 
L 2419 4116 
z
M 2253 4666 
L 3047 4666 
L 3047 1625 
L 3713 1625 
L 3713 1100 
L 3047 1100 
L 3047 0 
L 2419 0 
L 2419 1100 
L 313 1100 
L 313 1709 
L 2253 4666 
z
" transform="scale(0.015625)"/>
       </defs>
       <use xlink:href="#DejaVuSans-34"/>
       <use xlink:href="#DejaVuSans-30" transform="translate(63.623047 0)"/>
       <use xlink:href="#DejaVuSans-30" transform="translate(127.246094 0)"/>
      </g>
     </g>
    </g>
    <g id="xtick_6">
     <g id="line2d_11">
      <path d="M 444.546667 344.32 
L 444.546667 11.88 
" clip-path="url(#p1844aa6069)" style="fill: none; stroke: #ffffff; stroke-width: 0.8; stroke-linecap: square"/>
     </g>
     <g id="line2d_12">
      <g>
       <use xlink:href="#m3df75089f0" x="444.546667" y="344.32" style="fill: #636870; stroke: #636870; stroke-width: 0.8"/>
      </g>
     </g>
     <g id="text_6">
      <!-- 500 -->
      <g style="fill: #636870" transform="translate(434.048542 359.678281) scale(0.11 -0.11)">
       <defs>
        <path id="DejaVuSans-35" d="M 691 4666 
L 3169 4666 
L 3169 4134 
L 1269 4134 
L 1269 2991 
Q 1406 3038 1543 3061 
Q 1681 3084 1819 3084 
Q 2600 3084 3056 2656 
Q 3513 2228 3513 1497 
Q 3513 744 3044 326 
Q 2575 -91 1722 -91 
Q 1428 -91 1123 -41 
Q 819 9 494 109 
L 494 744 
Q 775 591 1075 516 
Q 1375 441 1709 441 
Q 2250 441 2565 725 
Q 2881 1009 2881 1497 
Q 2881 1984 2565 2268 
Q 2250 2553 1709 2553 
Q 1456 2553 1204 2497 
Q 953 2441 691 2322 
L 691 4666 
z
" transform="scale(0.015625)"/>
       </defs>
       <use xlink:href="#DejaVuSans-35"/>
       <use xlink:href="#DejaVuSans-30" transform="translate(63.623047 0)"/>
       <use xlink:href="#DejaVuSans-30" transform="translate(127.246094 0)"/>
      </g>
     </g>
    </g>
    <g id="xtick_7">
     <g id="line2d_13">
      <path d="M 521.176 344.32 
L 521.176 11.88 
" clip-path="url(#p1844aa6069)" style="fill: none; stroke: #ffffff; stroke-width: 0.8; stroke-linecap: square"/>
     </g>
     <g id="line2d_14">
      <g>
       <use xlink:href="#m3df75089f0" x="521.176" y="344.32" style="fill: #636870; stroke: #636870; stroke-width: 0.8"/>
      </g>
     </g>
     <g id="text_7">
      <!-- 600 -->
      <g style="fill: #636870" transform="translate(510.677875 359.678281) scale(0.11 -0.11)">
       <defs>
        <path id="DejaVuSans-36" d="M 2113 2584 
Q 1688 2584 1439 2293 
Q 1191 2003 1191 1497 
Q 1191 994 1439 701 
Q 1688 409 2113 409 
Q 2538 409 2786 701 
Q 3034 994 3034 1497 
Q 3034 2003 2786 2293 
Q 2538 2584 2113 2584 
z
M 3366 4563 
L 3366 3988 
Q 3128 4100 2886 4159 
Q 2644 4219 2406 4219 
Q 1781 4219 1451 3797 
Q 1122 3375 1075 2522 
Q 1259 2794 1537 2939 
Q 1816 3084 2150 3084 
Q 2853 3084 3261 2657 
Q 3669 2231 3669 1497 
Q 3669 778 3244 343 
Q 2819 -91 2113 -91 
Q 1303 -91 875 529 
Q 447 1150 447 2328 
Q 447 3434 972 4092 
Q 1497 4750 2381 4750 
Q 2619 4750 2861 4703 
Q 3103 4656 3366 4563 
z
" transform="scale(0.015625)"/>
       </defs>
       <use xlink:href="#DejaVuSans-36"/>
       <use xlink:href="#DejaVuSans-30" transform="translate(63.623047 0)"/>
       <use xlink:href="#DejaVuSans-30" transform="translate(127.246094 0)"/>
      </g>
     </g>
    </g>
    <g id="xtick_8">
     <g id="line2d_15">
      <path d="M 597.805333 344.32 
L 597.805333 11.88 
" clip-path="url(#p1844aa6069)" style="fill: none; stroke: #ffffff; stroke-width: 0.8; stroke-linecap: square"/>
     </g>
     <g id="line2d_16">
      <g>
       <use xlink:href="#m3df75089f0" x="597.805333" y="344.32" style="fill: #636870; stroke: #636870; stroke-width: 0.8"/>
      </g>
     </g>
     <g id="text_8">
      <!-- 700 -->
      <g style="fill: #636870" transform="translate(587.307208 359.678281) scale(0.11 -0.11)">
       <defs>
        <path id="DejaVuSans-37" d="M 525 4666 
L 3525 4666 
L 3525 4397 
L 1831 0 
L 1172 0 
L 2766 4134 
L 525 4134 
L 525 4666 
z
" transform="scale(0.015625)"/>
       </defs>
       <use xlink:href="#DejaVuSans-37"/>
       <use xlink:href="#DejaVuSans-30" transform="translate(63.623047 0)"/>
       <use xlink:href="#DejaVuSans-30" transform="translate(127.246094 0)"/>
      </g>
     </g>
    </g>
    <g id="text_9">
     <!-- Northbound flow F (MW) -->
     <g style="fill: #636870" transform="translate(281.847344 374.324219) scale(0.11 -0.11)">
      <defs>
       <path id="DejaVuSans-4e" d="M 628 4666 
L 1478 4666 
L 3547 763 
L 3547 4666 
L 4159 4666 
L 4159 0 
L 3309 0 
L 1241 3903 
L 1241 0 
L 628 0 
L 628 4666 
z
" transform="scale(0.015625)"/>
       <path id="DejaVuSans-6f" d="M 1959 3097 
Q 1497 3097 1228 2736 
Q 959 2375 959 1747 
Q 959 1119 1226 758 
Q 1494 397 1959 397 
Q 2419 397 2687 759 
Q 2956 1122 2956 1747 
Q 2956 2369 2687 2733 
Q 2419 3097 1959 3097 
z
M 1959 3584 
Q 2709 3584 3137 3096 
Q 3566 2609 3566 1747 
Q 3566 888 3137 398 
Q 2709 -91 1959 -91 
Q 1206 -91 779 398 
Q 353 888 353 1747 
Q 353 2609 779 3096 
Q 1206 3584 1959 3584 
z
" transform="scale(0.015625)"/>
       <path id="DejaVuSans-72" d="M 2631 2963 
Q 2534 3019 2420 3045 
Q 2306 3072 2169 3072 
Q 1681 3072 1420 2755 
Q 1159 2438 1159 1844 
L 1159 0 
L 581 0 
L 581 3500 
L 1159 3500 
L 1159 2956 
Q 1341 3275 1631 3429 
Q 1922 3584 2338 3584 
Q 2397 3584 2469 3576 
Q 2541 3569 2628 3553 
L 2631 2963 
z
" transform="scale(0.015625)"/>
       <path id="DejaVuSans-74" d="M 1172 4494 
L 1172 3500 
L 2356 3500 
L 2356 3053 
L 1172 3053 
L 1172 1153 
Q 1172 725 1289 603 
Q 1406 481 1766 481 
L 2356 481 
L 2356 0 
L 1766 0 
Q 1100 0 847 248 
Q 594 497 594 1153 
L 594 3053 
L 172 3053 
L 172 3500 
L 594 3500 
L 594 4494 
L 1172 4494 
z
" transform="scale(0.015625)"/>
       <path id="DejaVuSans-68" d="M 3513 2113 
L 3513 0 
L 2938 0 
L 2938 2094 
Q 2938 2591 2744 2837 
Q 2550 3084 2163 3084 
Q 1697 3084 1428 2787 
Q 1159 2491 1159 1978 
L 1159 0 
L 581 0 
L 581 4863 
L 1159 4863 
L 1159 2956 
Q 1366 3272 1645 3428 
Q 1925 3584 2291 3584 
Q 2894 3584 3203 3211 
Q 3513 2838 3513 2113 
z
" transform="scale(0.015625)"/>
       <path id="DejaVuSans-62" d="M 3116 1747 
Q 3116 2381 2855 2742 
Q 2594 3103 2138 3103 
Q 1681 3103 1420 2742 
Q 1159 2381 1159 1747 
Q 1159 1113 1420 752 
Q 1681 391 2138 391 
Q 2594 391 2855 752 
Q 3116 1113 3116 1747 
z
M 1159 2969 
Q 1341 3281 1617 3432 
Q 1894 3584 2278 3584 
Q 2916 3584 3314 3078 
Q 3713 2572 3713 1747 
Q 3713 922 3314 415 
Q 2916 -91 2278 -91 
Q 1894 -91 1617 61 
Q 1341 213 1159 525 
L 1159 0 
L 581 0 
L 581 4863 
L 1159 4863 
L 1159 2969 
z
" transform="scale(0.015625)"/>
       <path id="DejaVuSans-75" d="M 544 1381 
L 544 3500 
L 1119 3500 
L 1119 1403 
Q 1119 906 1312 657 
Q 1506 409 1894 409 
Q 2359 409 2629 706 
Q 2900 1003 2900 1516 
L 2900 3500 
L 3475 3500 
L 3475 0 
L 2900 0 
L 2900 538 
Q 2691 219 2414 64 
Q 2138 -91 1772 -91 
Q 1169 -91 856 284 
Q 544 659 544 1381 
z
M 1991 3584 
L 1991 3584 
z
" transform="scale(0.015625)"/>
       <path id="DejaVuSans-6e" d="M 3513 2113 
L 3513 0 
L 2938 0 
L 2938 2094 
Q 2938 2591 2744 2837 
Q 2550 3084 2163 3084 
Q 1697 3084 1428 2787 
Q 1159 2491 1159 1978 
L 1159 0 
L 581 0 
L 581 3500 
L 1159 3500 
L 1159 2956 
Q 1366 3272 1645 3428 
Q 1925 3584 2291 3584 
Q 2894 3584 3203 3211 
Q 3513 2838 3513 2113 
z
" transform="scale(0.015625)"/>
       <path id="DejaVuSans-64" d="M 2906 2969 
L 2906 4863 
L 3481 4863 
L 3481 0 
L 2906 0 
L 2906 525 
Q 2725 213 2448 61 
Q 2172 -91 1784 -91 
Q 1150 -91 751 415 
Q 353 922 353 1747 
Q 353 2572 751 3078 
Q 1150 3584 1784 3584 
Q 2172 3584 2448 3432 
Q 2725 3281 2906 2969 
z
M 947 1747 
Q 947 1113 1208 752 
Q 1469 391 1925 391 
Q 2381 391 2643 752 
Q 2906 1113 2906 1747 
Q 2906 2381 2643 2742 
Q 2381 3103 1925 3103 
Q 1469 3103 1208 2742 
Q 947 2381 947 1747 
z
" transform="scale(0.015625)"/>
       <path id="DejaVuSans-20" transform="scale(0.015625)"/>
       <path id="DejaVuSans-66" d="M 2375 4863 
L 2375 4384 
L 1825 4384 
Q 1516 4384 1395 4259 
Q 1275 4134 1275 3809 
L 1275 3500 
L 2222 3500 
L 2222 3053 
L 1275 3053 
L 1275 0 
L 697 0 
L 697 3053 
L 147 3053 
L 147 3500 
L 697 3500 
L 697 3744 
Q 697 4328 969 4595 
Q 1241 4863 1831 4863 
L 2375 4863 
z
" transform="scale(0.015625)"/>
       <path id="DejaVuSans-6c" d="M 603 4863 
L 1178 4863 
L 1178 0 
L 603 0 
L 603 4863 
z
" transform="scale(0.015625)"/>
       <path id="DejaVuSans-77" d="M 269 3500 
L 844 3500 
L 1563 769 
L 2278 3500 
L 2956 3500 
L 3675 769 
L 4391 3500 
L 4966 3500 
L 4050 0 
L 3372 0 
L 2619 2869 
L 1863 0 
L 1184 0 
L 269 3500 
z
" transform="scale(0.015625)"/>
       <path id="DejaVuSans-46" d="M 628 4666 
L 3309 4666 
L 3309 4134 
L 1259 4134 
L 1259 2759 
L 3109 2759 
L 3109 2228 
L 1259 2228 
L 1259 0 
L 628 0 
L 628 4666 
z
" transform="scale(0.015625)"/>
       <path id="DejaVuSans-28" d="M 1984 4856 
Q 1566 4138 1362 3434 
Q 1159 2731 1159 2009 
Q 1159 1288 1364 580 
Q 1569 -128 1984 -844 
L 1484 -844 
Q 1016 -109 783 600 
Q 550 1309 550 2009 
Q 550 2706 781 3412 
Q 1013 4119 1484 4856 
L 1984 4856 
z
" transform="scale(0.015625)"/>
       <path id="DejaVuSans-4d" d="M 628 4666 
L 1569 4666 
L 2759 1491 
L 3956 4666 
L 4897 4666 
L 4897 0 
L 4281 0 
L 4281 4097 
L 3078 897 
L 2444 897 
L 1241 4097 
L 1241 0 
L 628 0 
L 628 4666 
z
" transform="scale(0.015625)"/>
       <path id="DejaVuSans-57" d="M 213 4666 
L 850 4666 
L 1831 722 
L 2809 4666 
L 3519 4666 
L 4500 722 
L 5478 4666 
L 6119 4666 
L 4947 0 
L 4153 0 
L 3169 4050 
L 2175 0 
L 1381 0 
L 213 4666 
z
" transform="scale(0.015625)"/>
       <path id="DejaVuSans-29" d="M 513 4856 
L 1013 4856 
Q 1481 4119 1714 3412 
Q 1947 2706 1947 2009 
Q 1947 1309 1714 600 
Q 1481 -109 1013 -844 
L 513 -844 
Q 928 -128 1133 580 
Q 1338 1288 1338 2009 
Q 1338 2731 1133 3434 
Q 928 4138 513 4856 
z
" transform="scale(0.015625)"/>
      </defs>
      <use xlink:href="#DejaVuSans-4e"/>
      <use xlink:href="#DejaVuSans-6f" transform="translate(74.804688 0)"/>
      <use xlink:href="#DejaVuSans-72" transform="translate(135.986328 0)"/>
      <use xlink:href="#DejaVuSans-74" transform="translate(177.099609 0)"/>
      <use xlink:href="#DejaVuSans-68" transform="translate(216.308594 0)"/>
      <use xlink:href="#DejaVuSans-62" transform="translate(279.6875 0)"/>
      <use xlink:href="#DejaVuSans-6f" transform="translate(343.164062 0)"/>
      <use xlink:href="#DejaVuSans-75" transform="translate(404.345703 0)"/>
      <use xlink:href="#DejaVuSans-6e" transform="translate(467.724609 0)"/>
      <use xlink:href="#DejaVuSans-64" transform="translate(531.103516 0)"/>
      <use xlink:href="#DejaVuSans-20" transform="translate(594.580078 0)"/>
      <use xlink:href="#DejaVuSans-66" transform="translate(626.367188 0)"/>
      <use xlink:href="#DejaVuSans-6c" transform="translate(661.572266 0)"/>
      <use xlink:href="#DejaVuSans-6f" transform="translate(689.355469 0)"/>
      <use xlink:href="#DejaVuSans-77" transform="translate(750.537109 0)"/>
      <use xlink:href="#DejaVuSans-20" transform="translate(832.324219 0)"/>
      <use xlink:href="#DejaVuSans-46" transform="translate(864.111328 0)"/>
      <use xlink:href="#DejaVuSans-20" transform="translate(921.630859 0)"/>
      <use xlink:href="#DejaVuSans-28" transform="translate(953.417969 0)"/>
      <use xlink:href="#DejaVuSans-4d" transform="translate(992.431641 0)"/>
      <use xlink:href="#DejaVuSans-57" transform="translate(1078.710938 0)"/>
      <use xlink:href="#DejaVuSans-29" transform="translate(1177.587891 0)"/>
     </g>
    </g>
   </g>
   <g id="matplotlib.axis_2">
    <g id="ytick_1">
     <g id="line2d_17">
      <path d="M 61.4 344.32 
L 636.12 344.32 
" clip-path="url(#p1844aa6069)" style="fill: none; stroke: #ffffff; stroke-width: 0.8; stroke-linecap: square"/>
     </g>
     <g id="line2d_18">
      <defs>
       <path id="mc0fb0e3104" d="M 0 0 
L -3.5 0 
" style="stroke: #636870; stroke-width: 0.8"/>
      </defs>
      <g>
       <use xlink:href="#mc0fb0e3104" x="61.4" y="344.32" style="fill: #636870; stroke: #636870; stroke-width: 0.8"/>
      </g>
     </g>
     <g id="text_10">
      <!-- 0 -->
      <g style="fill: #636870" transform="translate(47.40125 348.499141) scale(0.11 -0.11)">
       <use xlink:href="#DejaVuSans-30"/>
      </g>
     </g>
    </g>
    <g id="ytick_2">
     <g id="line2d_19">
      <path d="M 61.4 299.994667 
L 636.12 299.994667 
" clip-path="url(#p1844aa6069)" style="fill: none; stroke: #ffffff; stroke-width: 0.8; stroke-linecap: square"/>
     </g>
     <g id="line2d_20">
      <g>
       <use xlink:href="#mc0fb0e3104" x="61.4" y="299.994667" style="fill: #636870; stroke: #636870; stroke-width: 0.8"/>
      </g>
     </g>
     <g id="text_11">
      <!-- 200 -->
      <g style="fill: #636870" transform="translate(33.40375 304.173807) scale(0.11 -0.11)">
       <use xlink:href="#DejaVuSans-32"/>
       <use xlink:href="#DejaVuSans-30" transform="translate(63.623047 0)"/>
       <use xlink:href="#DejaVuSans-30" transform="translate(127.246094 0)"/>
      </g>
     </g>
    </g>
    <g id="ytick_3">
     <g id="line2d_21">
      <path d="M 61.4 255.669333 
L 636.12 255.669333 
" clip-path="url(#p1844aa6069)" style="fill: none; stroke: #ffffff; stroke-width: 0.8; stroke-linecap: square"/>
     </g>
     <g id="line2d_22">
      <g>
       <use xlink:href="#mc0fb0e3104" x="61.4" y="255.669333" style="fill: #636870; stroke: #636870; stroke-width: 0.8"/>
      </g>
     </g>
     <g id="text_12">
      <!-- 400 -->
      <g style="fill: #636870" transform="translate(33.40375 259.848474) scale(0.11 -0.11)">
       <use xlink:href="#DejaVuSans-34"/>
       <use xlink:href="#DejaVuSans-30" transform="translate(63.623047 0)"/>
       <use xlink:href="#DejaVuSans-30" transform="translate(127.246094 0)"/>
      </g>
     </g>
    </g>
    <g id="ytick_4">
     <g id="line2d_23">
      <path d="M 61.4 211.344 
L 636.12 211.344 
" clip-path="url(#p1844aa6069)" style="fill: none; stroke: #ffffff; stroke-width: 0.8; stroke-linecap: square"/>
     </g>
     <g id="line2d_24">
      <g>
       <use xlink:href="#mc0fb0e3104" x="61.4" y="211.344" style="fill: #636870; stroke: #636870; stroke-width: 0.8"/>
      </g>
     </g>
     <g id="text_13">
      <!-- 600 -->
      <g style="fill: #636870" transform="translate(33.40375 215.523141) scale(0.11 -0.11)">
       <use xlink:href="#DejaVuSans-36"/>
       <use xlink:href="#DejaVuSans-30" transform="translate(63.623047 0)"/>
       <use xlink:href="#DejaVuSans-30" transform="translate(127.246094 0)"/>
      </g>
     </g>
    </g>
    <g id="ytick_5">
     <g id="line2d_25">
      <path d="M 61.4 167.018667 
L 636.12 167.018667 
" clip-path="url(#p1844aa6069)" style="fill: none; stroke: #ffffff; stroke-width: 0.8; stroke-linecap: square"/>
     </g>
     <g id="line2d_26">
      <g>
       <use xlink:href="#mc0fb0e3104" x="61.4" y="167.018667" style="fill: #636870; stroke: #636870; stroke-width: 0.8"/>
      </g>
     </g>
     <g id="text_14">
      <!-- 800 -->
      <g style="fill: #636870" transform="translate(33.40375 171.197807) scale(0.11 -0.11)">
       <defs>
        <path id="DejaVuSans-38" d="M 2034 2216 
Q 1584 2216 1326 1975 
Q 1069 1734 1069 1313 
Q 1069 891 1326 650 
Q 1584 409 2034 409 
Q 2484 409 2743 651 
Q 3003 894 3003 1313 
Q 3003 1734 2745 1975 
Q 2488 2216 2034 2216 
z
M 1403 2484 
Q 997 2584 770 2862 
Q 544 3141 544 3541 
Q 544 4100 942 4425 
Q 1341 4750 2034 4750 
Q 2731 4750 3128 4425 
Q 3525 4100 3525 3541 
Q 3525 3141 3298 2862 
Q 3072 2584 2669 2484 
Q 3125 2378 3379 2068 
Q 3634 1759 3634 1313 
Q 3634 634 3220 271 
Q 2806 -91 2034 -91 
Q 1263 -91 848 271 
Q 434 634 434 1313 
Q 434 1759 690 2068 
Q 947 2378 1403 2484 
z
M 1172 3481 
Q 1172 3119 1398 2916 
Q 1625 2713 2034 2713 
Q 2441 2713 2670 2916 
Q 2900 3119 2900 3481 
Q 2900 3844 2670 4047 
Q 2441 4250 2034 4250 
Q 1625 4250 1398 4047 
Q 1172 3844 1172 3481 
z
" transform="scale(0.015625)"/>
       </defs>
       <use xlink:href="#DejaVuSans-38"/>
       <use xlink:href="#DejaVuSans-30" transform="translate(63.623047 0)"/>
       <use xlink:href="#DejaVuSans-30" transform="translate(127.246094 0)"/>
      </g>
     </g>
    </g>
    <g id="ytick_6">
     <g id="line2d_27">
      <path d="M 61.4 122.693333 
L 636.12 122.693333 
" clip-path="url(#p1844aa6069)" style="fill: none; stroke: #ffffff; stroke-width: 0.8; stroke-linecap: square"/>
     </g>
     <g id="line2d_28">
      <g>
       <use xlink:href="#mc0fb0e3104" x="61.4" y="122.693333" style="fill: #636870; stroke: #636870; stroke-width: 0.8"/>
      </g>
     </g>
     <g id="text_15">
      <!-- 1000 -->
      <g style="fill: #636870" transform="translate(26.405 126.872474) scale(0.11 -0.11)">
       <use xlink:href="#DejaVuSans-31"/>
       <use xlink:href="#DejaVuSans-30" transform="translate(63.623047 0)"/>
       <use xlink:href="#DejaVuSans-30" transform="translate(127.246094 0)"/>
       <use xlink:href="#DejaVuSans-30" transform="translate(190.869141 0)"/>
      </g>
     </g>
    </g>
    <g id="ytick_7">
     <g id="line2d_29">
      <path d="M 61.4 78.368 
L 636.12 78.368 
" clip-path="url(#p1844aa6069)" style="fill: none; stroke: #ffffff; stroke-width: 0.8; stroke-linecap: square"/>
     </g>
     <g id="line2d_30">
      <g>
       <use xlink:href="#mc0fb0e3104" x="61.4" y="78.368" style="fill: #636870; stroke: #636870; stroke-width: 0.8"/>
      </g>
     </g>
     <g id="text_16">
      <!-- 1200 -->
      <g style="fill: #636870" transform="translate(26.405 82.547141) scale(0.11 -0.11)">
       <use xlink:href="#DejaVuSans-31"/>
       <use xlink:href="#DejaVuSans-32" transform="translate(63.623047 0)"/>
       <use xlink:href="#DejaVuSans-30" transform="translate(127.246094 0)"/>
       <use xlink:href="#DejaVuSans-30" transform="translate(190.869141 0)"/>
      </g>
     </g>
    </g>
    <g id="ytick_8">
     <g id="line2d_31">
      <path d="M 61.4 34.042667 
L 636.12 34.042667 
" clip-path="url(#p1844aa6069)" style="fill: none; stroke: #ffffff; stroke-width: 0.8; stroke-linecap: square"/>
     </g>
     <g id="line2d_32">
      <g>
       <use xlink:href="#mc0fb0e3104" x="61.4" y="34.042667" style="fill: #636870; stroke: #636870; stroke-width: 0.8"/>
      </g>
     </g>
     <g id="text_17">
      <!-- 1400 -->
      <g style="fill: #636870" transform="translate(26.405 38.221807) scale(0.11 -0.11)">
       <use xlink:href="#DejaVuSans-31"/>
       <use xlink:href="#DejaVuSans-34" transform="translate(63.623047 0)"/>
       <use xlink:href="#DejaVuSans-30" transform="translate(127.246094 0)"/>
       <use xlink:href="#DejaVuSans-30" transform="translate(190.869141 0)"/>
      </g>
     </g>
    </g>
    <g id="text_18">
     <!-- Southern generation P (MW) -->
     <g style="fill: #636870" transform="translate(20.117344 256.066797) rotate(-90) scale(0.11 -0.11)">
      <defs>
       <path id="DejaVuSans-53" d="M 3425 4513 
L 3425 3897 
Q 3066 4069 2747 4153 
Q 2428 4238 2131 4238 
Q 1616 4238 1336 4038 
Q 1056 3838 1056 3469 
Q 1056 3159 1242 3001 
Q 1428 2844 1947 2747 
L 2328 2669 
Q 3034 2534 3370 2195 
Q 3706 1856 3706 1288 
Q 3706 609 3251 259 
Q 2797 -91 1919 -91 
Q 1588 -91 1214 -16 
Q 841 59 441 206 
L 441 856 
Q 825 641 1194 531 
Q 1563 422 1919 422 
Q 2459 422 2753 634 
Q 3047 847 3047 1241 
Q 3047 1584 2836 1778 
Q 2625 1972 2144 2069 
L 1759 2144 
Q 1053 2284 737 2584 
Q 422 2884 422 3419 
Q 422 4038 858 4394 
Q 1294 4750 2059 4750 
Q 2388 4750 2728 4690 
Q 3069 4631 3425 4513 
z
" transform="scale(0.015625)"/>
       <path id="DejaVuSans-65" d="M 3597 1894 
L 3597 1613 
L 953 1613 
Q 991 1019 1311 708 
Q 1631 397 2203 397 
Q 2534 397 2845 478 
Q 3156 559 3463 722 
L 3463 178 
Q 3153 47 2828 -22 
Q 2503 -91 2169 -91 
Q 1331 -91 842 396 
Q 353 884 353 1716 
Q 353 2575 817 3079 
Q 1281 3584 2069 3584 
Q 2775 3584 3186 3129 
Q 3597 2675 3597 1894 
z
M 3022 2063 
Q 3016 2534 2758 2815 
Q 2500 3097 2075 3097 
Q 1594 3097 1305 2825 
Q 1016 2553 972 2059 
L 3022 2063 
z
" transform="scale(0.015625)"/>
       <path id="DejaVuSans-67" d="M 2906 1791 
Q 2906 2416 2648 2759 
Q 2391 3103 1925 3103 
Q 1463 3103 1205 2759 
Q 947 2416 947 1791 
Q 947 1169 1205 825 
Q 1463 481 1925 481 
Q 2391 481 2648 825 
Q 2906 1169 2906 1791 
z
M 3481 434 
Q 3481 -459 3084 -895 
Q 2688 -1331 1869 -1331 
Q 1566 -1331 1297 -1286 
Q 1028 -1241 775 -1147 
L 775 -588 
Q 1028 -725 1275 -790 
Q 1522 -856 1778 -856 
Q 2344 -856 2625 -561 
Q 2906 -266 2906 331 
L 2906 616 
Q 2728 306 2450 153 
Q 2172 0 1784 0 
Q 1141 0 747 490 
Q 353 981 353 1791 
Q 353 2603 747 3093 
Q 1141 3584 1784 3584 
Q 2172 3584 2450 3431 
Q 2728 3278 2906 2969 
L 2906 3500 
L 3481 3500 
L 3481 434 
z
" transform="scale(0.015625)"/>
       <path id="DejaVuSans-61" d="M 2194 1759 
Q 1497 1759 1228 1600 
Q 959 1441 959 1056 
Q 959 750 1161 570 
Q 1363 391 1709 391 
Q 2188 391 2477 730 
Q 2766 1069 2766 1631 
L 2766 1759 
L 2194 1759 
z
M 3341 1997 
L 3341 0 
L 2766 0 
L 2766 531 
Q 2569 213 2275 61 
Q 1981 -91 1556 -91 
Q 1019 -91 701 211 
Q 384 513 384 1019 
Q 384 1609 779 1909 
Q 1175 2209 1959 2209 
L 2766 2209 
L 2766 2266 
Q 2766 2663 2505 2880 
Q 2244 3097 1772 3097 
Q 1472 3097 1187 3025 
Q 903 2953 641 2809 
L 641 3341 
Q 956 3463 1253 3523 
Q 1550 3584 1831 3584 
Q 2591 3584 2966 3190 
Q 3341 2797 3341 1997 
z
" transform="scale(0.015625)"/>
       <path id="DejaVuSans-69" d="M 603 3500 
L 1178 3500 
L 1178 0 
L 603 0 
L 603 3500 
z
M 603 4863 
L 1178 4863 
L 1178 4134 
L 603 4134 
L 603 4863 
z
" transform="scale(0.015625)"/>
       <path id="DejaVuSans-50" d="M 1259 4147 
L 1259 2394 
L 2053 2394 
Q 2494 2394 2734 2622 
Q 2975 2850 2975 3272 
Q 2975 3691 2734 3919 
Q 2494 4147 2053 4147 
L 1259 4147 
z
M 628 4666 
L 2053 4666 
Q 2838 4666 3239 4311 
Q 3641 3956 3641 3272 
Q 3641 2581 3239 2228 
Q 2838 1875 2053 1875 
L 1259 1875 
L 1259 0 
L 628 0 
L 628 4666 
z
" transform="scale(0.015625)"/>
      </defs>
      <use xlink:href="#DejaVuSans-53"/>
      <use xlink:href="#DejaVuSans-6f" transform="translate(63.476562 0)"/>
      <use xlink:href="#DejaVuSans-75" transform="translate(124.658203 0)"/>
      <use xlink:href="#DejaVuSans-74" transform="translate(188.037109 0)"/>
      <use xlink:href="#DejaVuSans-68" transform="translate(227.246094 0)"/>
      <use xlink:href="#DejaVuSans-65" transform="translate(290.625 0)"/>
      <use xlink:href="#DejaVuSans-72" transform="translate(352.148438 0)"/>
      <use xlink:href="#DejaVuSans-6e" transform="translate(391.511719 0)"/>
      <use xlink:href="#DejaVuSans-20" transform="translate(454.890625 0)"/>
      <use xlink:href="#DejaVuSans-67" transform="translate(486.677734 0)"/>
      <use xlink:href="#DejaVuSans-65" transform="translate(550.154297 0)"/>
      <use xlink:href="#DejaVuSans-6e" transform="translate(611.677734 0)"/>
      <use xlink:href="#DejaVuSans-65" transform="translate(675.056641 0)"/>
      <use xlink:href="#DejaVuSans-72" transform="translate(736.580078 0)"/>
      <use xlink:href="#DejaVuSans-61" transform="translate(777.693359 0)"/>
      <use xlink:href="#DejaVuSans-74" transform="translate(838.972656 0)"/>
      <use xlink:href="#DejaVuSans-69" transform="translate(878.181641 0)"/>
      <use xlink:href="#DejaVuSans-6f" transform="translate(905.964844 0)"/>
      <use xlink:href="#DejaVuSans-6e" transform="translate(967.146484 0)"/>
      <use xlink:href="#DejaVuSans-20" transform="translate(1030.525391 0)"/>
      <use xlink:href="#DejaVuSans-50" transform="translate(1062.3125 0)"/>
      <use xlink:href="#DejaVuSans-20" transform="translate(1122.615234 0)"/>
      <use xlink:href="#DejaVuSans-28" transform="translate(1154.402344 0)"/>
      <use xlink:href="#DejaVuSans-4d" transform="translate(1193.416016 0)"/>
      <use xlink:href="#DejaVuSans-57" transform="translate(1279.695312 0)"/>
      <use xlink:href="#DejaVuSans-29" transform="translate(1378.572266 0)"/>
     </g>
    </g>
   </g>
   <g id="line2d_33">
    <path d="M 61.4 34.042667 
L 66.764053 37.14544 
L 72.128107 40.248213 
L 77.49216 43.350987 
L 82.856213 46.45376 
L 88.220267 49.556533 
L 93.58432 52.659307 
L 98.948373 55.76208 
L 104.312427 58.864853 
L 109.67648 61.967627 
L 115.040533 65.0704 
L 120.404587 68.173173 
L 125.76864 71.275947 
L 131.132693 74.37872 
L 136.496747 77.481493 
L 141.8608 80.584267 
L 147.224853 83.68704 
L 152.588907 86.789813 
L 157.95296 89.892587 
L 163.317013 92.99536 
L 168.681067 96.098133 
L 174.04512 99.200907 
L 179.409173 102.30368 
L 184.773227 105.406453 
L 190.13728 108.509227 
L 195.501333 111.612 
L 200.865387 114.714773 
L 206.22944 117.817547 
L 211.593493 120.92032 
L 216.957547 124.023093 
L 222.3216 127.125867 
L 227.685653 130.22864 
L 233.049707 133.331413 
L 238.41376 136.434187 
L 243.777813 139.53696 
L 249.141867 142.639733 
L 254.50592 145.742507 
L 259.869973 148.84528 
L 265.234027 151.948053 
L 270.59808 155.050827 
L 275.962133 158.1536 
L 281.326187 161.256373 
L 286.69024 164.359147 
L 292.054293 167.46192 
L 297.418347 170.564693 
L 302.7824 173.667467 
L 308.146453 176.77024 
L 313.510507 179.873013 
L 318.87456 182.975787 
L 324.238613 186.07856 
L 329.602667 189.181333 
L 334.96672 192.284107 
L 340.330773 195.38688 
L 345.694827 198.489653 
L 351.05888 201.592427 
L 356.422933 204.6952 
L 361.786987 207.797973 
L 367.15104 210.900747 
L 372.515093 214.00352 
L 377.879147 217.106293 
L 383.2432 220.209067 
L 388.607253 223.31184 
L 393.971307 226.414613 
L 399.33536 229.517387 
L 404.699413 232.62016 
L 410.063467 235.722933 
L 415.42752 238.825707 
L 420.791573 241.92848 
L 426.155627 245.031253 
L 431.51968 248.134027 
L 436.883733 251.2368 
L 442.247787 254.339573 
L 447.61184 257.442347 
L 452.975893 260.54512 
L 458.339947 263.647893 
L 463.704 266.750667 
L 469.068053 269.85344 
L 474.432107 272.956213 
L 479.79616 276.058987 
L 485.160213 279.16176 
L 490.524267 282.264533 
L 495.88832 285.367307 
L 501.252373 288.47008 
L 506.616427 291.572853 
L 511.98048 294.675627 
L 517.344533 297.7784 
L 522.708587 300.881173 
L 528.07264 303.983947 
L 533.436693 307.08672 
L 538.800747 310.189493 
L 544.1648 313.292267 
L 549.528853 316.39504 
L 554.892907 319.497813 
L 560.25696 322.600587 
L 565.621013 325.70336 
L 570.985067 328.806133 
L 576.34912 331.908907 
L 581.713173 335.01168 
L 587.077227 338.114453 
L 592.44128 341.217227 
L 597.805333 344.32 
" clip-path="url(#p1844aa6069)" style="fill: none; stroke: #268a87; stroke-width: 2.2; stroke-linecap: square"/>
   </g>
   <g id="line2d_34">
    <path d="M 61.4 344.32 
L 66.764053 342.768613 
L 72.128107 341.217227 
L 77.49216 339.66584 
L 82.856213 338.114453 
L 88.220267 336.563067 
L 93.58432 335.01168 
L 98.948373 333.460293 
L 104.312427 331.908907 
L 109.67648 330.35752 
L 115.040533 328.806133 
L 120.404587 327.254747 
L 125.76864 325.70336 
L 131.132693 324.151973 
L 136.496747 322.600587 
L 141.8608 321.0492 
L 147.224853 319.497813 
L 152.588907 317.946427 
L 157.95296 316.39504 
L 163.317013 314.843653 
L 168.681067 313.292267 
L 174.04512 311.74088 
L 179.409173 310.189493 
L 184.773227 308.638107 
L 190.13728 307.08672 
L 195.501333 305.535333 
L 200.865387 303.983947 
L 206.22944 302.43256 
L 211.593493 300.881173 
L 216.957547 299.329787 
L 222.3216 297.7784 
L 227.685653 296.227013 
L 233.049707 294.675627 
L 238.41376 293.12424 
L 243.777813 291.572853 
L 249.141867 290.021467 
L 254.50592 288.47008 
L 259.869973 286.918693 
L 265.234027 285.367307 
L 270.59808 283.81592 
L 275.962133 282.264533 
L 281.326187 280.713147 
L 286.69024 279.16176 
L 292.054293 277.610373 
L 297.418347 276.058987 
L 302.7824 274.5076 
L 308.146453 272.956213 
L 313.510507 271.404827 
L 318.87456 269.85344 
L 324.238613 268.302053 
L 329.602667 266.750667 
L 334.96672 265.19928 
L 340.330773 263.647893 
L 345.694827 262.096507 
L 351.05888 260.54512 
L 356.422933 258.993733 
L 361.786987 257.442347 
L 367.15104 255.89096 
L 372.515093 254.339573 
L 377.879147 252.788187 
L 383.2432 251.2368 
L 388.607253 249.685413 
L 393.971307 248.134027 
L 399.33536 246.58264 
L 404.699413 245.031253 
L 410.063467 243.479867 
L 415.42752 241.92848 
L 420.791573 240.377093 
L 426.155627 238.825707 
L 431.51968 237.27432 
L 436.883733 235.722933 
L 442.247787 234.171547 
L 447.61184 232.62016 
L 452.975893 231.068773 
L 458.339947 229.517387 
L 463.704 227.966 
L 469.068053 226.414613 
L 474.432107 224.863227 
L 479.79616 223.31184 
L 485.160213 221.760453 
L 490.524267 220.209067 
L 495.88832 218.65768 
L 501.252373 217.106293 
L 506.616427 215.554907 
L 511.98048 214.00352 
L 517.344533 212.452133 
L 522.708587 210.900747 
L 528.07264 209.34936 
L 533.436693 207.797973 
L 538.800747 206.246587 
L 544.1648 204.6952 
L 549.528853 203.143813 
L 554.892907 201.592427 
L 560.25696 200.04104 
L 565.621013 198.489653 
L 570.985067 196.938267 
L 576.34912 195.38688 
L 581.713173 193.835493 
L 587.077227 192.284107 
L 592.44128 190.73272 
L 597.805333 189.181333 
" clip-path="url(#p1844aa6069)" style="fill: none; stroke: #397fab; stroke-width: 2; stroke-linecap: square"/>
   </g>
   <g id="line2d_35">
    <path d="M 367.917333 344.32 
L 367.917333 11.88 
" clip-path="url(#p1844aa6069)" style="fill: none; stroke-dasharray: 5.55,2.4; stroke-dashoffset: 0; stroke: #7658b5; stroke-width: 1.5"/>
   </g>
   <g id="patch_3">
    <path d="M 61.4 344.32 
L 61.4 11.88 
" style="fill: none; stroke: #ffffff; stroke-width: 0.8; stroke-linejoin: miter; stroke-linecap: square"/>
   </g>
   <g id="patch_4">
    <path d="M 636.12 344.32 
L 636.12 11.88 
" style="fill: none; stroke: #ffffff; stroke-width: 0.8; stroke-linejoin: miter; stroke-linecap: square"/>
   </g>
   <g id="patch_5">
    <path d="M 61.4 344.32 
L 636.12 344.32 
" style="fill: none; stroke: #ffffff; stroke-width: 0.8; stroke-linejoin: miter; stroke-linecap: square"/>
   </g>
   <g id="patch_6">
    <path d="M 61.4 11.88 
L 636.12 11.88 
" style="fill: none; stroke: #ffffff; stroke-width: 0.8; stroke-linejoin: miter; stroke-linecap: square"/>
   </g>
   <g id="patch_7">
    <path d="M 193.343153 127.639389 
Q 279.72855 169.059352 365.105809 209.995934 
" style="fill: none; stroke: #66717e; stroke-linecap: round"/>
    <path d="M 362.363682 206.463125 
L 365.105809 209.995934 
L 360.634285 210.06995 
" style="fill: none; stroke: #66717e; stroke-linecap: round"/>
   </g>
   <g id="text_19">
    <!-- Reference state -->
    <g style="fill: #282b30" transform="translate(122.703467 111.495521) scale(0.1 -0.1)">
     <defs>
      <path id="DejaVuSans-52" d="M 2841 2188 
Q 3044 2119 3236 1894 
Q 3428 1669 3622 1275 
L 4263 0 
L 3584 0 
L 2988 1197 
Q 2756 1666 2539 1819 
Q 2322 1972 1947 1972 
L 1259 1972 
L 1259 0 
L 628 0 
L 628 4666 
L 2053 4666 
Q 2853 4666 3247 4331 
Q 3641 3997 3641 3322 
Q 3641 2881 3436 2590 
Q 3231 2300 2841 2188 
z
M 1259 4147 
L 1259 2491 
L 2053 2491 
Q 2509 2491 2742 2702 
Q 2975 2913 2975 3322 
Q 2975 3731 2742 3939 
Q 2509 4147 2053 4147 
L 1259 4147 
z
" transform="scale(0.015625)"/>
      <path id="DejaVuSans-63" d="M 3122 3366 
L 3122 2828 
Q 2878 2963 2633 3030 
Q 2388 3097 2138 3097 
Q 1578 3097 1268 2742 
Q 959 2388 959 1747 
Q 959 1106 1268 751 
Q 1578 397 2138 397 
Q 2388 397 2633 464 
Q 2878 531 3122 666 
L 3122 134 
Q 2881 22 2623 -34 
Q 2366 -91 2075 -91 
Q 1284 -91 818 406 
Q 353 903 353 1747 
Q 353 2603 823 3093 
Q 1294 3584 2113 3584 
Q 2378 3584 2631 3529 
Q 2884 3475 3122 3366 
z
" transform="scale(0.015625)"/>
      <path id="DejaVuSans-73" d="M 2834 3397 
L 2834 2853 
Q 2591 2978 2328 3040 
Q 2066 3103 1784 3103 
Q 1356 3103 1142 2972 
Q 928 2841 928 2578 
Q 928 2378 1081 2264 
Q 1234 2150 1697 2047 
L 1894 2003 
Q 2506 1872 2764 1633 
Q 3022 1394 3022 966 
Q 3022 478 2636 193 
Q 2250 -91 1575 -91 
Q 1294 -91 989 -36 
Q 684 19 347 128 
L 347 722 
Q 666 556 975 473 
Q 1284 391 1588 391 
Q 1994 391 2212 530 
Q 2431 669 2431 922 
Q 2431 1156 2273 1281 
Q 2116 1406 1581 1522 
L 1381 1569 
Q 847 1681 609 1914 
Q 372 2147 372 2553 
Q 372 3047 722 3315 
Q 1072 3584 1716 3584 
Q 2034 3584 2315 3537 
Q 2597 3491 2834 3397 
z
" transform="scale(0.015625)"/>
     </defs>
     <use xlink:href="#DejaVuSans-52"/>
     <use xlink:href="#DejaVuSans-65" transform="translate(64.982422 0)"/>
     <use xlink:href="#DejaVuSans-66" transform="translate(126.505859 0)"/>
     <use xlink:href="#DejaVuSans-65" transform="translate(161.710938 0)"/>
     <use xlink:href="#DejaVuSans-72" transform="translate(223.234375 0)"/>
     <use xlink:href="#DejaVuSans-65" transform="translate(262.097656 0)"/>
     <use xlink:href="#DejaVuSans-6e" transform="translate(323.621094 0)"/>
     <use xlink:href="#DejaVuSans-63" transform="translate(387 0)"/>
     <use xlink:href="#DejaVuSans-65" transform="translate(441.980469 0)"/>
     <use xlink:href="#DejaVuSans-20" transform="translate(503.503906 0)"/>
     <use xlink:href="#DejaVuSans-73" transform="translate(535.291016 0)"/>
     <use xlink:href="#DejaVuSans-74" transform="translate(587.390625 0)"/>
     <use xlink:href="#DejaVuSans-61" transform="translate(626.599609 0)"/>
     <use xlink:href="#DejaVuSans-74" transform="translate(687.878906 0)"/>
     <use xlink:href="#DejaVuSans-65" transform="translate(727.087891 0)"/>
    </g>
    <!-- F = 400, P = 600 -->
    <g style="fill: #282b30" transform="translate(122.703467 122.693333) scale(0.1 -0.1)">
     <defs>
      <path id="DejaVuSans-3d" d="M 678 2906 
L 4684 2906 
L 4684 2381 
L 678 2381 
L 678 2906 
z
M 678 1631 
L 4684 1631 
L 4684 1100 
L 678 1100 
L 678 1631 
z
" transform="scale(0.015625)"/>
      <path id="DejaVuSans-2c" d="M 750 794 
L 1409 794 
L 1409 256 
L 897 -744 
L 494 -744 
L 750 256 
L 750 794 
z
" transform="scale(0.015625)"/>
     </defs>
     <use xlink:href="#DejaVuSans-46"/>
     <use xlink:href="#DejaVuSans-20" transform="translate(57.519531 0)"/>
     <use xlink:href="#DejaVuSans-3d" transform="translate(89.306641 0)"/>
     <use xlink:href="#DejaVuSans-20" transform="translate(173.095703 0)"/>
     <use xlink:href="#DejaVuSans-34" transform="translate(204.882812 0)"/>
     <use xlink:href="#DejaVuSans-30" transform="translate(268.505859 0)"/>
     <use xlink:href="#DejaVuSans-30" transform="translate(332.128906 0)"/>
     <use xlink:href="#DejaVuSans-2c" transform="translate(395.751953 0)"/>
     <use xlink:href="#DejaVuSans-20" transform="translate(427.539062 0)"/>
     <use xlink:href="#DejaVuSans-50" transform="translate(459.326172 0)"/>
     <use xlink:href="#DejaVuSans-20" transform="translate(519.628906 0)"/>
     <use xlink:href="#DejaVuSans-3d" transform="translate(551.416016 0)"/>
     <use xlink:href="#DejaVuSans-20" transform="translate(635.205078 0)"/>
     <use xlink:href="#DejaVuSans-36" transform="translate(666.992188 0)"/>
     <use xlink:href="#DejaVuSans-30" transform="translate(730.615234 0)"/>
     <use xlink:href="#DejaVuSans-30" transform="translate(794.238281 0)"/>
    </g>
   </g>
   <g id="patch_8">
    <path d="M 476.968909 161.631882 
Q 448.576181 200.45635 420.84343 238.378361 
" style="fill: none; stroke: #66717e; stroke-linecap: round"/>
    <path d="M 424.819001 236.330231 
L 420.84343 238.378361 
L 421.590269 233.969027 
" style="fill: none; stroke: #66717e; stroke-linecap: round"/>
   </g>
   <g id="text_20">
    <!-- Future maximum -->
    <g style="fill: #282b30" transform="translate(444.546667 144.739521) scale(0.1 -0.1)">
     <defs>
      <path id="DejaVuSans-6d" d="M 3328 2828 
Q 3544 3216 3844 3400 
Q 4144 3584 4550 3584 
Q 5097 3584 5394 3201 
Q 5691 2819 5691 2113 
L 5691 0 
L 5113 0 
L 5113 2094 
Q 5113 2597 4934 2840 
Q 4756 3084 4391 3084 
Q 3944 3084 3684 2787 
Q 3425 2491 3425 1978 
L 3425 0 
L 2847 0 
L 2847 2094 
Q 2847 2600 2669 2842 
Q 2491 3084 2119 3084 
Q 1678 3084 1418 2786 
Q 1159 2488 1159 1978 
L 1159 0 
L 581 0 
L 581 3500 
L 1159 3500 
L 1159 2956 
Q 1356 3278 1631 3431 
Q 1906 3584 2284 3584 
Q 2666 3584 2933 3390 
Q 3200 3197 3328 2828 
z
" transform="scale(0.015625)"/>
      <path id="DejaVuSans-78" d="M 3513 3500 
L 2247 1797 
L 3578 0 
L 2900 0 
L 1881 1375 
L 863 0 
L 184 0 
L 1544 1831 
L 300 3500 
L 978 3500 
L 1906 2253 
L 2834 3500 
L 3513 3500 
z
" transform="scale(0.015625)"/>
     </defs>
     <use xlink:href="#DejaVuSans-46"/>
     <use xlink:href="#DejaVuSans-75" transform="translate(52.019531 0)"/>
     <use xlink:href="#DejaVuSans-74" transform="translate(115.398438 0)"/>
     <use xlink:href="#DejaVuSans-75" transform="translate(154.607422 0)"/>
     <use xlink:href="#DejaVuSans-72" transform="translate(217.986328 0)"/>
     <use xlink:href="#DejaVuSans-65" transform="translate(256.849609 0)"/>
     <use xlink:href="#DejaVuSans-20" transform="translate(318.373047 0)"/>
     <use xlink:href="#DejaVuSans-6d" transform="translate(350.160156 0)"/>
     <use xlink:href="#DejaVuSans-61" transform="translate(447.572266 0)"/>
     <use xlink:href="#DejaVuSans-78" transform="translate(508.851562 0)"/>
     <use xlink:href="#DejaVuSans-69" transform="translate(568.03125 0)"/>
     <use xlink:href="#DejaVuSans-6d" transform="translate(595.814453 0)"/>
     <use xlink:href="#DejaVuSans-75" transform="translate(693.226562 0)"/>
     <use xlink:href="#DejaVuSans-6d" transform="translate(756.605469 0)"/>
    </g>
    <!-- F = P = 466.67 -->
    <g style="fill: #282b30" transform="translate(444.546667 155.937333) scale(0.1 -0.1)">
     <defs>
      <path id="DejaVuSans-2e" d="M 684 794 
L 1344 794 
L 1344 0 
L 684 0 
L 684 794 
z
" transform="scale(0.015625)"/>
     </defs>
     <use xlink:href="#DejaVuSans-46"/>
     <use xlink:href="#DejaVuSans-20" transform="translate(57.519531 0)"/>
     <use xlink:href="#DejaVuSans-3d" transform="translate(89.306641 0)"/>
     <use xlink:href="#DejaVuSans-20" transform="translate(173.095703 0)"/>
     <use xlink:href="#DejaVuSans-50" transform="translate(204.882812 0)"/>
     <use xlink:href="#DejaVuSans-20" transform="translate(265.185547 0)"/>
     <use xlink:href="#DejaVuSans-3d" transform="translate(296.972656 0)"/>
     <use xlink:href="#DejaVuSans-20" transform="translate(380.761719 0)"/>
     <use xlink:href="#DejaVuSans-34" transform="translate(412.548828 0)"/>
     <use xlink:href="#DejaVuSans-36" transform="translate(476.171875 0)"/>
     <use xlink:href="#DejaVuSans-36" transform="translate(539.794922 0)"/>
     <use xlink:href="#DejaVuSans-2e" transform="translate(603.417969 0)"/>
     <use xlink:href="#DejaVuSans-36" transform="translate(635.205078 0)"/>
     <use xlink:href="#DejaVuSans-37" transform="translate(698.828125 0)"/>
    </g>
   </g>
   <g id="PathCollection_1">
    <defs>
     <path id="C0_0_c414712e6c" d="M 0 4.609772 
C 1.222526 4.609772 2.395145 4.124058 3.259601 3.259601 
C 4.124058 2.395145 4.609772 1.222526 4.609772 -0 
C 4.609772 -1.222526 4.124058 -2.395145 3.259601 -3.259601 
C 2.395145 -4.124058 1.222526 -4.609772 0 -4.609772 
C -1.222526 -4.609772 -2.395145 -4.124058 -3.259601 -3.259601 
C -4.124058 -2.395145 -4.609772 -1.222526 -4.609772 0 
C -4.609772 1.222526 -4.124058 2.395145 -3.259601 3.259601 
C -2.395145 4.124058 -1.222526 4.609772 0 4.609772 
z
"/>
    </defs>
    <g clip-path="url(#p1844aa6069)">
     <use xlink:href="#C0_0_c414712e6c" x="367.917333" y="211.344" style="fill: #7658b5; stroke: #7658b5"/>
    </g>
    <g clip-path="url(#p1844aa6069)">
     <use xlink:href="#C0_0_c414712e6c" x="419.003556" y="240.894222" style="fill: #268a87; stroke: #268a87"/>
    </g>
   </g>
   <g id="legend_1">
    <g id="patch_9">
     <path d="M 470.691406 25.988672 
L 487.691406 25.988672 
L 487.691406 20.038672 
L 470.691406 20.038672 
z
" style="fill: #268a87; fill-opacity: 0.12; stroke: #268a87; stroke-opacity: 0.12; stroke-linejoin: miter"/>
    </g>
    <g id="text_21">
     <!-- Area within the network bound -->
     <g style="fill: #282b30" transform="translate(494.491406 25.988672) scale(0.085 -0.085)">
      <defs>
       <path id="DejaVuSans-41" d="M 2188 4044 
L 1331 1722 
L 3047 1722 
L 2188 4044 
z
M 1831 4666 
L 2547 4666 
L 4325 0 
L 3669 0 
L 3244 1197 
L 1141 1197 
L 716 0 
L 50 0 
L 1831 4666 
z
" transform="scale(0.015625)"/>
       <path id="DejaVuSans-6b" d="M 581 4863 
L 1159 4863 
L 1159 1991 
L 2875 3500 
L 3609 3500 
L 1753 1863 
L 3688 0 
L 2938 0 
L 1159 1709 
L 1159 0 
L 581 0 
L 581 4863 
z
" transform="scale(0.015625)"/>
      </defs>
      <use xlink:href="#DejaVuSans-41"/>
      <use xlink:href="#DejaVuSans-72" transform="translate(68.408203 0)"/>
      <use xlink:href="#DejaVuSans-65" transform="translate(107.271484 0)"/>
      <use xlink:href="#DejaVuSans-61" transform="translate(168.794922 0)"/>
      <use xlink:href="#DejaVuSans-20" transform="translate(230.074219 0)"/>
      <use xlink:href="#DejaVuSans-77" transform="translate(261.861328 0)"/>
      <use xlink:href="#DejaVuSans-69" transform="translate(343.648438 0)"/>
      <use xlink:href="#DejaVuSans-74" transform="translate(371.431641 0)"/>
      <use xlink:href="#DejaVuSans-68" transform="translate(410.640625 0)"/>
      <use xlink:href="#DejaVuSans-69" transform="translate(474.019531 0)"/>
      <use xlink:href="#DejaVuSans-6e" transform="translate(501.802734 0)"/>
      <use xlink:href="#DejaVuSans-20" transform="translate(565.181641 0)"/>
      <use xlink:href="#DejaVuSans-74" transform="translate(596.96875 0)"/>
      <use xlink:href="#DejaVuSans-68" transform="translate(636.177734 0)"/>
      <use xlink:href="#DejaVuSans-65" transform="translate(699.556641 0)"/>
      <use xlink:href="#DejaVuSans-20" transform="translate(761.080078 0)"/>
      <use xlink:href="#DejaVuSans-6e" transform="translate(792.867188 0)"/>
      <use xlink:href="#DejaVuSans-65" transform="translate(856.246094 0)"/>
      <use xlink:href="#DejaVuSans-74" transform="translate(917.769531 0)"/>
      <use xlink:href="#DejaVuSans-77" transform="translate(956.978516 0)"/>
      <use xlink:href="#DejaVuSans-6f" transform="translate(1038.765625 0)"/>
      <use xlink:href="#DejaVuSans-72" transform="translate(1099.947266 0)"/>
      <use xlink:href="#DejaVuSans-6b" transform="translate(1141.060547 0)"/>
      <use xlink:href="#DejaVuSans-20" transform="translate(1198.970703 0)"/>
      <use xlink:href="#DejaVuSans-62" transform="translate(1230.757812 0)"/>
      <use xlink:href="#DejaVuSans-6f" transform="translate(1294.234375 0)"/>
      <use xlink:href="#DejaVuSans-75" transform="translate(1355.416016 0)"/>
      <use xlink:href="#DejaVuSans-6e" transform="translate(1418.794922 0)"/>
      <use xlink:href="#DejaVuSans-64" transform="translate(1482.173828 0)"/>
     </g>
    </g>
    <g id="line2d_36">
     <path d="M 470.691406 35.490078 
L 479.191406 35.490078 
L 487.691406 35.490078 
" style="fill: none; stroke: #268a87; stroke-width: 2.2; stroke-linecap: square"/>
    </g>
    <g id="text_22">
     <!-- F + 0.5P = 700 -->
     <g style="fill: #282b30" transform="translate(494.491406 38.465078) scale(0.085 -0.085)">
      <defs>
       <path id="DejaVuSans-2b" d="M 2944 4013 
L 2944 2272 
L 4684 2272 
L 4684 1741 
L 2944 1741 
L 2944 0 
L 2419 0 
L 2419 1741 
L 678 1741 
L 678 2272 
L 2419 2272 
L 2419 4013 
L 2944 4013 
z
" transform="scale(0.015625)"/>
      </defs>
      <use xlink:href="#DejaVuSans-46"/>
      <use xlink:href="#DejaVuSans-20" transform="translate(57.519531 0)"/>
      <use xlink:href="#DejaVuSans-2b" transform="translate(89.306641 0)"/>
      <use xlink:href="#DejaVuSans-20" transform="translate(173.095703 0)"/>
      <use xlink:href="#DejaVuSans-30" transform="translate(204.882812 0)"/>
      <use xlink:href="#DejaVuSans-2e" transform="translate(268.505859 0)"/>
      <use xlink:href="#DejaVuSans-35" transform="translate(300.292969 0)"/>
      <use xlink:href="#DejaVuSans-50" transform="translate(363.916016 0)"/>
      <use xlink:href="#DejaVuSans-20" transform="translate(424.21875 0)"/>
      <use xlink:href="#DejaVuSans-3d" transform="translate(456.005859 0)"/>
      <use xlink:href="#DejaVuSans-20" transform="translate(539.794922 0)"/>
      <use xlink:href="#DejaVuSans-37" transform="translate(571.582031 0)"/>
      <use xlink:href="#DejaVuSans-30" transform="translate(635.205078 0)"/>
      <use xlink:href="#DejaVuSans-30" transform="translate(698.828125 0)"/>
     </g>
    </g>
    <g id="line2d_37">
     <path d="M 470.691406 47.966484 
L 479.191406 47.966484 
L 487.691406 47.966484 
" style="fill: none; stroke: #397fab; stroke-width: 2; stroke-linecap: square"/>
    </g>
    <g id="text_23">
     <!-- Future balance: P = F -->
     <g style="fill: #282b30" transform="translate(494.491406 50.941484) scale(0.085 -0.085)">
      <defs>
       <path id="DejaVuSans-3a" d="M 750 794 
L 1409 794 
L 1409 0 
L 750 0 
L 750 794 
z
M 750 3309 
L 1409 3309 
L 1409 2516 
L 750 2516 
L 750 3309 
z
" transform="scale(0.015625)"/>
      </defs>
      <use xlink:href="#DejaVuSans-46"/>
      <use xlink:href="#DejaVuSans-75" transform="translate(52.019531 0)"/>
      <use xlink:href="#DejaVuSans-74" transform="translate(115.398438 0)"/>
      <use xlink:href="#DejaVuSans-75" transform="translate(154.607422 0)"/>
      <use xlink:href="#DejaVuSans-72" transform="translate(217.986328 0)"/>
      <use xlink:href="#DejaVuSans-65" transform="translate(256.849609 0)"/>
      <use xlink:href="#DejaVuSans-20" transform="translate(318.373047 0)"/>
      <use xlink:href="#DejaVuSans-62" transform="translate(350.160156 0)"/>
      <use xlink:href="#DejaVuSans-61" transform="translate(413.636719 0)"/>
      <use xlink:href="#DejaVuSans-6c" transform="translate(474.916016 0)"/>
      <use xlink:href="#DejaVuSans-61" transform="translate(502.699219 0)"/>
      <use xlink:href="#DejaVuSans-6e" transform="translate(563.978516 0)"/>
      <use xlink:href="#DejaVuSans-63" transform="translate(627.357422 0)"/>
      <use xlink:href="#DejaVuSans-65" transform="translate(682.337891 0)"/>
      <use xlink:href="#DejaVuSans-3a" transform="translate(743.861328 0)"/>
      <use xlink:href="#DejaVuSans-20" transform="translate(777.552734 0)"/>
      <use xlink:href="#DejaVuSans-50" transform="translate(809.339844 0)"/>
      <use xlink:href="#DejaVuSans-20" transform="translate(869.642578 0)"/>
      <use xlink:href="#DejaVuSans-3d" transform="translate(901.429688 0)"/>
      <use xlink:href="#DejaVuSans-20" transform="translate(985.21875 0)"/>
      <use xlink:href="#DejaVuSans-46" transform="translate(1017.005859 0)"/>
     </g>
    </g>
    <g id="line2d_38">
     <path d="M 470.691406 60.442891 
L 479.191406 60.442891 
L 487.691406 60.442891 
" style="fill: none; stroke-dasharray: 5.55,2.4; stroke-dashoffset: 0; stroke: #7658b5; stroke-width: 1.5"/>
    </g>
    <g id="text_24">
     <!-- Fixed reference bound: F = 400 -->
     <g style="fill: #282b30" transform="translate(494.491406 63.417891) scale(0.085 -0.085)">
      <use xlink:href="#DejaVuSans-46"/>
      <use xlink:href="#DejaVuSans-69" transform="translate(50.269531 0)"/>
      <use xlink:href="#DejaVuSans-78" transform="translate(78.052734 0)"/>
      <use xlink:href="#DejaVuSans-65" transform="translate(134.107422 0)"/>
      <use xlink:href="#DejaVuSans-64" transform="translate(195.630859 0)"/>
      <use xlink:href="#DejaVuSans-20" transform="translate(259.107422 0)"/>
      <use xlink:href="#DejaVuSans-72" transform="translate(290.894531 0)"/>
      <use xlink:href="#DejaVuSans-65" transform="translate(329.757812 0)"/>
      <use xlink:href="#DejaVuSans-66" transform="translate(391.28125 0)"/>
      <use xlink:href="#DejaVuSans-65" transform="translate(426.486328 0)"/>
      <use xlink:href="#DejaVuSans-72" transform="translate(488.009766 0)"/>
      <use xlink:href="#DejaVuSans-65" transform="translate(526.873047 0)"/>
      <use xlink:href="#DejaVuSans-6e" transform="translate(588.396484 0)"/>
      <use xlink:href="#DejaVuSans-63" transform="translate(651.775391 0)"/>
      <use xlink:href="#DejaVuSans-65" transform="translate(706.755859 0)"/>
      <use xlink:href="#DejaVuSans-20" transform="translate(768.279297 0)"/>
      <use xlink:href="#DejaVuSans-62" transform="translate(800.066406 0)"/>
      <use xlink:href="#DejaVuSans-6f" transform="translate(863.542969 0)"/>
      <use xlink:href="#DejaVuSans-75" transform="translate(924.724609 0)"/>
      <use xlink:href="#DejaVuSans-6e" transform="translate(988.103516 0)"/>
      <use xlink:href="#DejaVuSans-64" transform="translate(1051.482422 0)"/>
      <use xlink:href="#DejaVuSans-3a" transform="translate(1114.958984 0)"/>
      <use xlink:href="#DejaVuSans-20" transform="translate(1148.650391 0)"/>
      <use xlink:href="#DejaVuSans-46" transform="translate(1180.4375 0)"/>
      <use xlink:href="#DejaVuSans-20" transform="translate(1237.957031 0)"/>
      <use xlink:href="#DejaVuSans-3d" transform="translate(1269.744141 0)"/>
      <use xlink:href="#DejaVuSans-20" transform="translate(1353.533203 0)"/>
      <use xlink:href="#DejaVuSans-34" transform="translate(1385.320312 0)"/>
      <use xlink:href="#DejaVuSans-30" transform="translate(1448.943359 0)"/>
      <use xlink:href="#DejaVuSans-30" transform="translate(1512.566406 0)"/>
     </g>
    </g>
   </g>
  </g>
 </g>
 <defs>
  <clipPath id="p1844aa6069">
   <rect x="61.4" y="11.88" width="574.72" height="332.44"/>
  </clipPath>
 </defs>
</svg>
